<?xml version="1.0" encoding="utf-8"?>
<!-- Svg Vector Icons : http://www.onlinewebfonts.com/icon -->
<!DOCTYPE svg PUBLIC "-//W3C//DTD SVG 1.1//EN" "http://www.w3.org/Graphics/SVG/1.1/DTD/svg11.dtd">
<svg version="1.1" xmlns="http://www.w3.org/2000/svg" xmlns:xlink="http://www.w3.org/1999/xlink" x="0px" y="0px" viewBox="0 0 1000 1000" enable-background="new 0 0 1000 1000" xml:space="preserve">
<metadata> Svg Vector Icons : http://www.onlinewebfonts.com/icon </metadata>
<g><g transform="translate(0.000000,512.000000) scale(0.100000,-0.100000)"><path d="M6693,4971.7c-97.6-123-13.7-263.6,156.2-263.6c82,0,222.6-64.4,296.7-132.8c80-76.1,148.4-230.4,148.4-339.7c0-144.5,29.3-183.5,185.5-259.6c632.5-302.6,630.6-1181.1-2-1485.7c-156.2-74.2-181.5-111.3-181.5-269.4c0-123-60.5-246-169.9-341.7c-82-72.2-160.1-101.5-324.1-128.8c-126.9-19.5-189.3-144.5-121-240.1c46.8-68.3,107.4-82,246-60.5c337.7,54.7,609.1,312.4,679.4,648.2c19.5,95.7,27.3,107.4,128.8,167.9c134.7,80,290.9,236.2,374.8,376.8c103.5,173.7,144.5,316.3,156.2,533c9.8,226.5-19.5,376.8-115.2,572c-74.2,152.3-283.1,378.8-421.7,456.8c-95.6,52.7-103.5,64.4-123,162c-74.2,361.2-374.8,630.6-724.3,650.1C6739.8,5024.4,6734,5022.4,6693,4971.7z"/><path d="M6167.8,4688.6c-76.1-31.2-109.3-150.3-64.4-234.3c25.4-48.8,126.9-80,183.5-58.6c58.6,21.5,109.3,91.8,109.3,150.3C6396.2,4641.7,6261.5,4727.6,6167.8,4688.6z"/><path d="M5552.8,4317.7c-48.8-50.8-56.6-70.3-46.8-123c15.6-80,76.1-130.8,160.1-130.8c91.7,0,144.5,56.6,144.5,154.2c0,60.5-11.7,85.9-50.8,117.1C5687.5,4391.8,5623.1,4386,5552.8,4317.7z"/><path d="M4980.8,3995.5c-97.6-95.7-29.3-263.6,107.4-263.6c80.1,0,156.2,76.1,156.2,156.2s-76.1,156.2-156.2,156.2C5051.1,4044.3,5010.1,4026.8,4980.8,3995.5z"/><path d="M3096.9,3673.4c-56.6-56.6-62.5-97.6-54.7-486.1c5.9-347.5,7.8-357.3,52.7-394.4c33.2-27.3,76.1-37.1,160.1-37.1h115.2v-175.7v-175.7H3173c-234.3,0-324.1-23.4-423.7-109.3c-41-35.1-195.2-244-343.6-464.6c-259.7-388.5-271.4-402.2-374.8-449c-117.1-54.7-185.5-119.1-249.9-236.2l-41-78.1l-5.9-2702c-5.9-2979.2-11.7-2823,115.2-2977.2c35.1-41,107.4-95.6,162-121l99.6-46.9h1425.2c1337.3,0,1429.1,3.9,1503.3,37.1c101.5,44.9,201.1,144.5,246,246c35.1,74.2,37.1,206.9,37.1,2799.6c0,2008.9-5.8,2741-23.4,2795.7c-39,134.7-230.4,310.4-333.8,310.4c-15.6,0-148.4,181.6-296.8,406.1c-146.4,222.6-287,425.6-310.4,449c-89.8,99.6-181.6,128.9-431.5,140.6l-234.3,9.8v165.9v165.9l117.1,5.8c85.9,3.9,128.9,17.6,160.1,46.9c43,41,44.9,52.7,44.9,435.4c0,519.3,41,478.3-484.2,478.3C3163.2,3712.5,3134,3710.5,3096.9,3673.4z M3702.1,3234.1v-165.9h-165.9h-165.9v165.9v165.9h165.9h165.9V3234.1z M4082.8,2080.3c17.6-7.8,128.9-156.2,246-331.9l212.8-320.2H3536.1c-552.5,0-1005.4,3.9-1005.4,9.8c0,29.3,394.4,595.4,433.4,622.8c37.1,27.3,121,31.2,564.2,31.2C3815.3,2092.1,4065.2,2086.2,4082.8,2080.3z M4963.3,1051.5l46.8-54.7v-2664.9c0-1989.4-5.8-2676.6-23.4-2707.8c-48.8-93.7-5.9-89.8-1456.4-91.8H2157.8l-46.9,48.8l-48.8,46.9v2692.2v2692.2l44.9,39c23.4,21.5,56.6,44.9,72.2,50.8c15.6,5.9,638.4,9.8,1382.2,7.8l1354.9-3.9L4963.3,1051.5z"/><path d="M3253-574.8c-269.4-70.3-509.5-240.1-657.9-462.7c-130.8-195.2-183.5-349.5-195.2-579.8c-17.6-347.5,89.8-624.7,337.8-872.7c224.5-222.5,466.6-324.1,788.7-324.1c388.5-2,738,179.6,944.9,490c191.3,288.9,249.9,659.9,152.3,970.3c-119.1,386.6-441.2,689.2-825.8,780.9C3641.6-537.7,3393.6-537.7,3253-574.8z M3731.4-885.2c242.1-64.4,437.3-226.5,550.5-454.9c50.8-101.5,54.7-128.9,54.7-335.8c0-216.7-1.9-230.4-64.4-357.3c-83.9-167.9-220.6-304.6-388.5-388.5c-124.9-60.5-142.5-64.4-347.5-64.4c-210.8,0-220.6,1.9-365.1,74.2c-408,201.1-574,667.7-380.7,1075.7C2962.2-973,3350.7-787.6,3731.4-885.2z"/><path d="M4404.9,3673.4c-60.5-60.5-52.7-181.6,11.7-232.3c72.2-56.6,136.7-50.8,206.9,17.6c48.8,50.8,56.6,70.3,46.9,123c-5.9,35.1-31.2,78.1-52.7,97.6C4561.1,3724.2,4453.7,3722.2,4404.9,3673.4z"/><path d="M5271.7,3372.8c-99.6-43-125-185.5-44.9-257.7c97.6-87.9,259.6-13.7,259.6,119.1C5486.5,3353.2,5381,3419.6,5271.7,3372.8z"/><path d="M5935.5,3380.6c-54.6-21.5-105.4-93.7-105.4-148.4c0-56.6,66.4-136.7,126.9-152.3c56.6-13.7,154.2,29.3,173.8,76.1c33.2,87.9-17.6,224.5-83.9,224.5c-9.8,0-29.3,3.9-44.9,7.8C5988.2,3394.2,5957,3390.3,5935.5,3380.6z"/><path d="M6579.7,3372.8c-66.4-29.3-85.9-64.4-85.9-148.4c0-140.6,171.8-199.1,265.5-89.8c58.6,66.4,58.6,132.8,3.9,195.2C6704.7,3392.3,6653.9,3404,6579.7,3372.8z"/><path d="M4463.5,3054.5c-66.4-25.4-97.6-72.2-97.6-146.4c0-95.7,54.7-152.3,144.5-152.3c136.7,0,212.8,142.5,124.9,240.1C4588.4,3048.7,4514.2,3074.1,4463.5,3054.5z"/><path d="M4980.8,2687.5c-97.6-95.7-29.3-263.6,107.4-263.6c80.1,0,156.2,76.1,156.2,156.2c0,80-76.1,156.2-156.2,156.2C5051.1,2736.3,5010.1,2718.7,4980.8,2687.5z"/><path d="M5562.6,2375.1c-113.2-80-46.8-281.1,93.7-283.1c85.9,0,154.2,68.3,154.2,156.2C5810.5,2381,5671.9,2451.3,5562.6,2375.1z"/><path d="M6122.9,2033.5c-48.8-48.8-50.7-156.2-3.9-212.8c17.6-21.5,60.5-46.9,95.7-52.7c52.7-9.8,72.2-2,123,46.9c68.3,70.3,74.2,134.7,17.6,206.9C6304.5,2086.2,6183.4,2094,6122.9,2033.5z"/></g></g>
</svg>